<svg xmlns="http://www.w3.org/2000/svg" width="16" height="17" viewBox="0 0 16 17" fill="none">
  <path d="M7.66667 16.2533C6.64445 16.2533 5.66667 16.0755 4.73333 15.72C3.81482 15.3496 3 14.8163 2.28889 14.12C1.57778 13.4089 1.01481 12.557 0.6 11.5644C0.2 10.557 0 9.40885 0 8.11996C0 7.00885 0.207407 5.97922 0.622222 5.03107C1.03704 4.08293 1.60741 3.2533 2.33333 2.54218C3.07407 1.81626 3.93333 1.2533 4.91111 0.853296C5.88889 0.453296 6.94815 0.253296 8.08889 0.253296C9.51111 0.253296 10.8 0.564407 11.9556 1.18663C13.1111 1.79404 13.9704 2.63107 14.5333 3.69774L11.3111 6.16441C11 5.54218 10.5333 5.04589 9.91111 4.67552C9.28889 4.29033 8.62963 4.09774 7.93333 4.09774C7.41482 4.09774 6.94074 4.20144 6.51111 4.40885C6.08148 4.61626 5.7037 4.90515 5.37778 5.27552C5.06667 5.64589 4.82222 6.09033 4.64444 6.60885C4.48148 7.11256 4.4 7.66811 4.4 8.27552C4.4 8.89774 4.48889 9.4607 4.66667 9.96441C4.84444 10.4681 5.08889 10.9051 5.4 11.2755C5.72593 11.6311 6.11111 11.9126 6.55556 12.12C7 12.3126 7.4963 12.4089 8.04444 12.4089C8.74074 12.4089 9.40741 12.2385 10.0444 11.8977C10.6815 11.5422 11.2593 11.0459 11.7778 10.4089V14.6311C10.5926 15.7126 9.22222 16.2533 7.66667 16.2533ZM11.5556 10.8533H8.64444V7.74219H15.1333V16.1422H11.5556V10.8533Z" fill="#000"/>
  <defs>
    <linearGradient id="paint0_linear_181_109" x1="18.6066" y1="0.562586" x2="21.4928" y2="8.3342" gradientUnits="userSpaceOnUse">
      <stop stop-color="#FF6402"/>
      <stop offset="1" stop-color="#FF0379"/>
    </linearGradient>
  </defs>
</svg>